<svg aria-hidden="true" style="position: absolute; width: 0; height: 0; overflow: hidden;" version="1.1" xmlns="http://www.w3.org/2000/svg" xmlns:xlink="http://www.w3.org/1999/xlink">
<defs>
<symbol id="icon-active" viewBox="0 0 32 32">
<path fill="#3470ff" style="fill: var(--color1, #3470ff); stroke: var(--color1, #3470ff)" stroke="#3470ff" stroke-linejoin="round" stroke-linecap="round" stroke-miterlimit="4" stroke-width="1.7778" d="M27.787 6.147c-0.681-0.681-1.49-1.222-2.38-1.591s-1.844-0.559-2.807-0.559c-0.963 0-1.917 0.19-2.807 0.559s-1.698 0.909-2.38 1.591l-1.413 1.413-1.413-1.413c-1.376-1.376-3.241-2.148-5.187-2.148s-3.811 0.773-5.187 2.148c-1.376 1.376-2.148 3.241-2.148 5.187s0.773 3.811 2.148 5.187l11.787 11.787 11.787-11.787c0.681-0.681 1.222-1.49 1.591-2.38s0.559-1.844 0.559-2.807c0-0.963-0.19-1.917-0.559-2.807s-0.909-1.699-1.591-2.38z"></path>
</symbol>
<symbol id="icon-normal" viewBox="0 0 32 32">
<path fill="none" stroke="#fff" style="stroke: var(--color2, #fff)" stroke-linejoin="round" stroke-linecap="round" stroke-miterlimit="4" stroke-width="2.6667" d="M27.787 6.147c-0.681-0.681-1.49-1.222-2.38-1.591s-1.844-0.559-2.807-0.559c-0.963 0-1.917 0.19-2.807 0.559s-1.698 0.909-2.38 1.591l-1.413 1.413-1.413-1.413c-1.376-1.376-3.241-2.148-5.187-2.148s-3.811 0.773-5.187 2.148c-1.376 1.376-2.148 3.241-2.148 5.187s0.773 3.811 2.148 5.187l11.787 11.787 11.787-11.787c0.681-0.681 1.222-1.49 1.591-2.38s0.559-1.844 0.559-2.807c0-0.963-0.19-1.917-0.559-2.807s-0.909-1.699-1.591-2.38z"></path>
</symbol>
<symbol id="icon-close" viewBox="0 0 32 32">
<path stroke-linejoin="round" stroke-linecap="round" stroke-miterlimit="4" stroke-width="2.4" d="M24 8l-16 16"></path>
<path stroke-linejoin="round" stroke-linecap="round" stroke-miterlimit="4" stroke-width="2.4" d="M8 8l16 16"></path>
</symbol>
<symbol id="icon-logo" viewBox="0 0 32 32">

<path fill="#2d4e9d" style="fill: var(--color2, #2d4e9d)" d="M2.928 14.825c0 0.2 0.043 0.4 0.151 0.566h-1.667c0.108-0.166 0.151-0.366 0.151-0.566v-2.681c0-0.2-0.043-0.4-0.151-0.566h2.968c0.523 0 0.955 0.12 0.955 0.795v0.863c0 0.657-0.416 0.789-0.955 0.789h-1.452v0.8h0zM3.619 13.396c0.345 0 0.351-0.126 0.351-0.446v-0.4c0-0.234-0.038-0.343-0.281-0.343h-0.761v1.189h0.691zM6.985 13.036c0.119-0.389 0.324-0.463 0.685-0.463h0.653v0.932c-0.146-0.149-0.345-0.166-0.545-0.166h-0.264c-0.254 0-0.443 0.143-0.443 0.423v0.921c0 0.246 0 0.486 0.108 0.709h-1.516c0.102-0.2 0.108-0.423 0.108-0.646v-1.464c0-0.154 0-0.309-0.021-0.457-0.012-0.094-0.043-0.179-0.088-0.255l0.002 0.003h1.29l0.032 0.463zM10.2 14.696c0 0.151 0 0.303 0.016 0.448 0.011 0.090 0.048 0.168 0.092 0.247h-1.522c0.103-0.196 0.108-0.415 0.108-0.633v-1.435c0-0.151 0-0.302-0.022-0.448-0.012-0.092-0.043-0.176-0.088-0.249l0.002 0.003h1.414v2.068h-0zM10.2 12.354h-1.306v-0.7h1.306v0.7zM13.561 13.247c-0.162-0.114-0.34-0.143-0.529-0.143h-0.788c-0.237 0-0.367 0.046-0.367 0.326v1.132c0 0.269 0.167 0.297 0.378 0.297h0.745c0.216 0 0.372-0.040 0.561-0.16l-0.108 0.692h-1.948c-0.124 0-0.248-0.023-0.372-0.034-0.335-0.074-0.561-0.394-0.561-0.749v-1.275c0-0.554 0.443-0.76 0.896-0.76h1.986l0.108 0.675zM15.207 14.253v0.234c0 0.332 0.117 0.372 0.411 0.372h1.216c0.2 0 0.411-0.023 0.589-0.131l-0.1 0.663h-2.438c-0.666 0-1.011-0.211-1.011-0.955v-0.909c0-0.675 0.289-0.955 0.933-0.955h1.682c0.672 0 0.977 0.206 0.977 0.943v0.737h-2.26zM16.146 13.413c0-0.166-0.022-0.309-0.216-0.309h-0.528c-0.161 0-0.194 0.097-0.194 0.274v0.337h0.938v-0.303zM19.185 14.71c0 0.148 0 0.296 0.021 0.439 0.011 0.088 0.043 0.165 0.087 0.242h-1.517c0.102-0.192 0.108-0.406 0.108-0.62v-2.361c0-0.143 0-0.291-0.022-0.439-0.011-0.082-0.043-0.165-0.086-0.242h1.408v2.981h0zM20.929 14.253v0.234c0 0.332 0.122 0.372 0.428 0.372h1.268c0.208 0 0.428-0.023 0.613-0.131l-0.104 0.663h-2.541c-0.695 0-1.053-0.211-1.053-0.955v-0.909c0-0.675 0.301-0.955 0.972-0.955h1.754c0.7 0 1.019 0.206 1.019 0.943v0.737h-2.356zM21.908 13.413c0-0.166-0.023-0.309-0.226-0.309h-0.55c-0.168 0-0.203 0.097-0.203 0.274v0.337h0.978v-0.303h-0zM26.075 13.507h-1.056l-0.067 0.005c-0.083 0-0.161-0.042-0.161-0.127 0-0.111 0.094-0.117 0.183-0.117h1.201c0.272 0 0.445 0 0.673 0.165l-0.128-0.658h-1.269v-0.308h-0.633v0.308h-0.199c-0.539 0-1.111 0.095-1.111 0.732v0.414c0 0.456 0.233 0.69 0.711 0.69h1.19c0.1 0 0.211 0.016 0.211 0.138 0 0.138-0.133 0.149-0.245 0.149h-1.173c-0.339 0-0.467-0.027-0.773-0.175l0.123 0.669h1.267v0.319h0.633v-0.319h0.446c0.556 0 0.995-0.18 0.995-0.78v-0.372c0-0.525-0.283-0.732-0.817-0.732zM29.699 13.507h-1.056l-0.067 0.005c-0.083 0-0.161-0.042-0.161-0.127 0-0.111 0.095-0.117 0.183-0.117h1.201c0.272 0 0.445 0 0.673 0.165l-0.128-0.658h-1.268v-0.308h-0.634v0.308h-0.199c-0.539 0-1.112 0.095-1.112 0.732v0.414c0 0.456 0.233 0.69 0.711 0.69h1.19c0.1 0 0.211 0.016 0.211 0.138 0 0.138-0.134 0.149-0.245 0.149h-1.173c-0.339 0-0.467-0.027-0.773-0.175l0.122 0.669h1.267v0.319h0.634v-0.319h0.446c0.556 0 0.995-0.18 0.995-0.78v-0.372c-0-0.525-0.284-0.732-0.817-0.732z"></path>
<path fill="#000" style="fill: var(--color3, #000)" d="M16.356 17.718h-0.266v-1.856h0.899c0.507 0 0.76 0.766-0.158 0.906-0.032 0.006-0.070 0.025 0 0.095 0.316 0.336 0.792 0.849 0.792 0.849h-0.335l-0.722-0.861c-0.082-0.101-0.209-0.089-0.209 0.108v0.76zM16.85 16.711c0.564-0.222 0.285-0.754 0-0.754h-0.5v0.754h0.5zM19.080 17.465v0.133c-0.329 0.247-1.216 0.266-1.267-0.513-0.038-0.83 1.33-0.982 1.337-0.025h-1.108c-0.013 0.437 0.45 0.83 1.039 0.405zM18.105 16.952h0.792c0-0.348-0.152-0.456-0.412-0.456s-0.38 0.215-0.38 0.456zM19.744 17.712h-0.258v-1.254h0.258v0.133s0.001 0.127 0.109-0.019c0.247-0.253 0.836-0.177 0.887 0.215v0.906h-0.26v-0.823c0.006-0.298-0.458-0.564-0.736-0.032v0.874zM21.031 16.461v0.101h0.197v0.96s0.079 0.361 0.592 0.215v-0.089c-0.164 0.063-0.339 0.051-0.345-0.146v-0.941h0.345v-0.101h-0.345v-0.389l-0.247 0.108v0.282l-0.197 0zM22.728 17.161h-0.773v-0.146h0.773v0.146zM25.869 17.161h-0.773v-0.146h0.773v0.146zM23.925 15.818l0.944 1.887h-0.279l-0.355-0.703h-0.763l-0.327 0.703h-0.197l0.976-1.887zM23.514 16.876h0.659l-0.298-0.678-0.361 0.678zM27.865 17.465v0.152c-0.785 0.443-1.773 0.044-1.773-0.773 0-0.792 0.855-1.222 1.799-0.874v0.228c-0.475-0.437-1.52-0.355-1.52 0.665 0 0.45 0.494 1.235 1.494 0.602zM28.314 16.719v-0.129c0.336-0.241 0.824-0.253 1.001 0.146v0.766c0 0.076 0.013 0.215 0.171 0.139v0.070c-0.152 0.101-0.342 0.019-0.355-0.063-0.019-0.070-0.114-0.070-0.152 0-0.19 0.165-0.747 0.215-0.779-0.171-0.013-0.31 0.221-0.355 0.405-0.399 0.221-0.038 0.38-0.070 0.38-0.070 0.082 0 0.127-0.038 0.12-0.152-0.013-0.235-0.279-0.522-0.792-0.137zM29.093 17.496v-0.424c-0.222 0.044-0.405 0.076-0.405 0.076-0.234 0.070-0.279 0.171-0.222 0.405 0.051 0.165 0.393 0.19 0.627-0.057zM30.094 17.718h-0.26v-1.248h0.228v0.158s0.019 0.114 0.114 0.013c0.108-0.152 0.228-0.228 0.412-0.197v0.257c-0.152-0.137-0.503-0.071-0.503 0.284 0 0.399 0.009 0.732 0.009 0.732zM18.105 20.423h-8.614c-1.343-2.534-3.598-4.079-6.308-5.041 2.534-0 11.333 1.326 14.922 5.041z"></path>
</symbol>

<symbol id="icon-menu" viewBox="0 0 32 32">
<path fill="none" stroke="#4a5568" style="stroke: var(--color1, #4a5568)" stroke-linejoin="round" stroke-linecap="round" stroke-miterlimit="4" stroke-width="2.6667" d="M5.333 8h21.333M5.333 16h10.667M5.333 24h21.333"></path>
</symbol>
</defs>
</svg>
